<?xml version="1.0" encoding="UTF-8"?>
<svg version="1.1" xmlns="http://www.w3.org/2000/svg" width="256" height="170">
<path d="M0 0 C1.13853414 -0.00913666 1.13853414 -0.00913666 2.30006897 -0.01845789 C4.83334801 -0.03505411 7.36612254 -0.03031701 9.89944458 -0.0255127 C11.71984376 -0.03285501 13.54023827 -0.04144171 15.36062622 -0.05117798 C20.29870839 -0.07338592 25.23662365 -0.07632501 30.1747489 -0.07443047 C34.29995583 -0.07431073 38.42512746 -0.08287624 42.55032456 -0.09120798 C52.28423491 -0.11043958 62.0180595 -0.11332679 71.75198364 -0.10656738 C81.78704278 -0.09992697 91.82173431 -0.12279161 101.8567189 -0.15988111 C110.47857113 -0.19058906 119.10030518 -0.20193694 127.722211 -0.1980443 C132.86896534 -0.19597789 138.01543362 -0.20143942 143.16213608 -0.22593689 C148.00337447 -0.24821939 152.8440157 -0.24631362 157.68525696 -0.22600937 C159.4589446 -0.22260196 161.23267256 -0.22767683 163.00630569 -0.24199295 C179.18111251 -0.36351057 179.18111251 -0.36351057 184.86911201 3.99880219 C192.28804921 11.38435953 193.49452038 19.22408594 193.52305603 29.42541504 C193.51594101 30.57533936 193.50882599 31.72526367 193.50149536 32.91003418 C193.5016716 34.13504639 193.50184784 35.36005859 193.50202942 36.62219238 C193.49948811 39.94158916 193.48762893 43.26064275 193.46947479 46.57997131 C193.45850003 48.64942068 193.44999324 50.71886633 193.44223022 52.78833008 C193.41499293 59.86546213 193.37534952 66.94241053 193.32424927 74.01940918 C193.27619332 80.68518217 193.26244028 87.35057952 193.2585907 94.01654053 C193.24944646 98.77256746 193.21404987 103.52811175 193.17034912 108.28393555 C193.15425934 110.50694913 193.14789911 112.7300565 193.1517334 114.953125 C193.17159732 137.45958746 193.17159732 137.45958746 186.27102661 144.39440918 C184.95102661 145.38440918 183.63102661 146.37440918 182.27102661 147.39440918 C192.50102661 147.72440918 202.73102661 148.05440918 213.27102661 148.39440918 C213.27102661 155.65440918 213.27102661 162.91440918 213.27102661 170.39440918 C128.79102661 170.39440918 44.31102661 170.39440918 -42.72897339 170.39440918 C-42.72897339 163.13440918 -42.72897339 155.87440918 -42.72897339 148.39440918 C-27.38397339 147.89940918 -27.38397339 147.89940918 -11.72897339 147.39440918 C-14.69897339 144.91940918 -14.69897339 144.91940918 -17.72897339 142.39440918 C-19.15475464 140.33190918 -19.15475464 140.33190918 -20.04147339 138.39440918 C-20.3469812 137.75503418 -20.65248901 137.11565918 -20.96725464 136.45690918 C-22.39476745 132.59164372 -22.85389666 128.82395408 -22.86941528 124.72236633 C-22.87512543 123.81280182 -22.88083557 122.9032373 -22.88671875 121.96611023 C-22.88783661 120.98056656 -22.88895447 119.99502289 -22.8901062 118.97961426 C-22.89507111 117.93180786 -22.90003601 116.88400146 -22.90515137 115.80444336 C-22.91974549 112.34093567 -22.92657092 108.87747381 -22.93209839 105.41394043 C-22.93785269 103.00123595 -22.94361039 100.58853149 -22.94937134 98.17582703 C-22.95987391 93.11611722 -22.96572126 88.05642327 -22.96920776 82.9967041 C-22.97468677 76.52843295 -22.99870551 70.0603729 -23.02717972 63.59216785 C-23.04584881 58.60688169 -23.05101401 53.62164591 -23.05254364 48.63632774 C-23.05556172 46.25261978 -23.06356155 43.86891253 -23.07672882 41.48523903 C-23.09387612 38.1420573 -23.09188754 34.79938521 -23.0854187 31.45617676 C-23.09463348 30.48075424 -23.10384827 29.50533173 -23.11334229 28.50035095 C-23.05931501 19.53973759 -21.5430834 11.73150378 -15.52194214 4.86706543 C-10.69284665 0.90068417 -6.09557062 -0.04634356 0 0 Z M1.27102661 22.39440918 C1.27102661 57.04440918 1.27102661 91.69440918 1.27102661 127.39440918 C56.71102661 127.39440918 112.15102661 127.39440918 169.27102661 127.39440918 C169.27102661 92.74440918 169.27102661 58.09440918 169.27102661 22.39440918 C113.83102661 22.39440918 58.39102661 22.39440918 1.27102661 22.39440918 Z " fill="#3771A1" transform="translate(42.728973388671875,-0.3944091796875)"/>
<path d="M0 0 C3.34820898 1.46625856 5.69266359 3.33658447 8.3125 5.875 C9.03050781 6.55304687 9.74851563 7.23109375 10.48828125 7.9296875 C12 10 12 10 11.7794342 11.92315674 C10.88124266 14.31643516 9.85453948 15.50806627 8.04077148 17.29980469 C7.4202037 17.92014587 6.79963593 18.54048706 6.16026306 19.17962646 C5.48733719 19.83706848 4.81441132 20.4945105 4.12109375 21.171875 C3.4344313 21.8542926 2.74776886 22.53671021 2.04029846 23.23980713 C-0.15369415 25.41701196 -2.35788916 27.58355281 -4.5625 29.75 C-6.05211634 31.22456971 -7.5410572 32.69982213 -9.02929688 34.17578125 C-12.67840808 37.79182176 -16.33670379 41.39833288 -20 45 C-18.83404297 46.14855469 -18.83404297 46.14855469 -17.64453125 47.3203125 C-15 50 -15 50 -12.6875 52.875 C-10.80750388 55.17020999 -8.82596589 57.08327782 -6.5625 59 C-2.38361471 62.58996902 1.6094439 66.3524382 5.5625 70.1875 C6.20695068 70.79400391 6.85140137 71.40050781 7.51538086 72.02539062 C8.40688843 72.9003418 8.40688843 72.9003418 9.31640625 73.79296875 C9.85724854 74.3139917 10.39809082 74.83501465 10.95532227 75.37182617 C12 77 12 77 11.796875 79.05297852 C10.61900278 81.93089854 8.66923169 83.61256684 6.4375 85.75 C5.61121094 86.54921875 4.78492188 87.3484375 3.93359375 88.171875 C3.29550781 88.77515625 2.65742187 89.3784375 2 90 C-1.36939951 88.53306647 -3.6180857 86.65474278 -6.23364258 84.08862305 C-7.05741898 83.28406174 -7.88119537 82.47950043 -8.72993469 81.65055847 C-9.60925156 80.77974136 -10.48856842 79.90892426 -11.39453125 79.01171875 C-12.30128098 78.11636917 -13.2080307 77.22101959 -14.14225769 76.29853821 C-16.05564631 74.40403392 -17.96633698 72.50714643 -19.8737793 70.60668945 C-22.31966367 68.17180881 -24.78356706 65.75605351 -27.25217152 63.34424114 C-29.60435546 61.03821459 -31.93548035 58.71107511 -34.26953125 56.38671875 C-35.15896927 55.52197433 -36.04840729 54.65722992 -36.96479797 53.76628113 C-37.77281357 52.95226334 -38.58082916 52.13824554 -39.41333008 51.29956055 C-40.49110466 50.23272285 -40.49110466 50.23272285 -41.59065247 49.14433289 C-43 47 -43 47 -42.82086182 44.35734558 C-41.83424178 41.52397663 -40.60543642 40.13207476 -38.46484375 38.0390625 C-37.73716797 37.31976563 -37.00949219 36.60046875 -36.25976562 35.859375 C-35.49341797 35.12203125 -34.72707031 34.3846875 -33.9375 33.625 C-33.19822266 32.89539062 -32.45894531 32.16578125 -31.69726562 31.4140625 C-28.2083461 27.9953487 -24.66647956 24.67237037 -20.96875 21.48046875 C-16.63920301 17.73924246 -12.59587618 13.74343 -8.5625 9.6875 C-7.48452148 8.61532227 -7.48452148 8.61532227 -6.38476562 7.52148438 C-5.70220703 6.83763672 -5.01964844 6.15378906 -4.31640625 5.44921875 C-3.70224854 4.83393311 -3.08809082 4.21864746 -2.45532227 3.5847168 C-0.90829075 2.04624733 -0.90829075 2.04624733 0 0 Z " fill="#FFD94B" transform="translate(98,30)"/>
<path d="M0 0 C3.44677 1.48343 5.67343301 3.43050188 8.30957031 6.08251953 C9.5704245 7.34360031 9.5704245 7.34360031 10.85675049 8.63015747 C11.75480408 9.53853363 12.65285767 10.44690979 13.578125 11.3828125 C14.5046991 12.31221649 15.43127319 13.24162048 16.38592529 14.19918823 C18.84315789 16.6640385 21.29432361 19.13483666 23.7442627 21.60693359 C26.24773809 24.13090765 28.75692063 26.64919388 31.265625 29.16796875 C36.18267525 34.10643597 41.09333788 39.051212 46 44 C44.51657 47.44677 42.56949812 49.67343301 39.91748047 52.30957031 C39.07675995 53.15013977 38.23603943 53.99070923 37.36984253 54.85675049 C36.46146637 55.75480408 35.55309021 56.65285767 34.6171875 57.578125 C33.68778351 58.5046991 32.75837952 59.43127319 31.80081177 60.38592529 C29.3359615 62.84315789 26.86516334 65.29432361 24.39306641 67.7442627 C21.86909235 70.24773809 19.35080612 72.75692063 16.83203125 75.265625 C11.89356403 80.18267525 6.948788 85.09333788 2 90 C-1.41059403 88.39464713 -3.61792484 86.59481099 -6.25 83.875 C-6.95640625 83.15054688 -7.6628125 82.42609375 -8.390625 81.6796875 C-8.92171875 81.12539062 -9.4528125 80.57109375 -10 80 C-8.68623083 77.09456128 -7.27943508 75.03338941 -5.01904297 72.79199219 C-4.41857147 72.19167175 -3.81809998 71.59135132 -3.19943237 70.97283936 C-2.55354156 70.33727112 -1.90765076 69.70170288 -1.2421875 69.046875 C-0.57913605 68.38665344 0.08391541 67.72643188 0.76705933 67.04620361 C2.88171832 64.94272176 5.00323212 62.84630858 7.125 60.75 C8.56165557 59.32337739 9.99785898 57.89629928 11.43359375 56.46875 C14.95050804 52.97386339 18.47358547 49.48529938 22 46 C20.68623083 43.09456128 19.27943508 41.03338941 17.01904297 38.79199219 C16.11833572 37.89151154 16.11833572 37.89151154 15.19943237 36.97283936 C14.55354156 36.33727112 13.90765076 35.70170288 13.2421875 35.046875 C12.57913605 34.38665344 11.91608459 33.72643188 11.23294067 33.04620361 C9.11828168 30.94272176 6.99676788 28.84630858 4.875 26.75 C3.43834443 25.32337739 2.00214102 23.89629928 0.56640625 22.46875 C-2.95050804 18.97386339 -6.47358547 15.48529938 -10 12 C-8.5161067 8.85072714 -7.17139732 7.05526884 -4.4375 4.875 C-1.78974334 2.79096366 -1.78974334 2.79096366 0 0 Z " fill="#FFD94B" transform="translate(157,30)"/>
</svg>
